<svg width="18" height="18" viewBox="0 0 18 18" fill="none" xmlns="http://www.w3.org/2000/svg">
<path d="M12.5 1.5C14.7091 1.5 16.5 3.29086 16.5 5.5V12.5C16.5 14.7091 14.7091 16.5 12.5 16.5H11.0312V11.3691H12.8008L13.0654 9.36914H11.0312V8.0918C11.0313 7.5132 11.1971 7.11816 12.0498 7.11816H13.1367V5.3291C12.9481 5.30479 12.3027 5.25 11.5518 5.25C9.98373 5.25019 8.91021 6.18215 8.91016 7.89355V9.36816H7.13672V11.3682H8.91016V16.5H5.5C3.29086 16.5 1.5 14.7091 1.5 12.5V5.5C1.5 3.29086 3.29086 1.5 5.5 1.5H12.5Z" fill="#969696"/>
</svg>
