<svg width="40" height="40" viewBox="0 0 40 40" fill="none" xmlns="http://www.w3.org/2000/svg">
<g filter="url(#filter0_d_1006_1250)">
<circle cx="20" cy="18" r="16" fill="#FCFCFC"/>
</g>
<path d="M31.4397 15.7157H30.4999V15.6673H19.9999V20.334H26.5933C25.6314 23.0506 23.0467 25.0007 19.9999 25.0007C16.1342 25.0007 12.9999 21.8664 12.9999 18.0007C12.9999 14.1349 16.1342 11.0007 19.9999 11.0007C21.7843 11.0007 23.4078 11.6738 24.6438 12.7734L27.9438 9.47348C25.8601 7.53157 23.0729 6.33398 19.9999 6.33398C13.557 6.33398 8.33325 11.5577 8.33325 18.0007C8.33325 24.4436 13.557 29.6673 19.9999 29.6673C26.4428 29.6673 31.6666 24.4436 31.6666 18.0007C31.6666 17.2184 31.5861 16.4548 31.4397 15.7157Z" fill="#FFC107"/>
<path d="M9.67847 12.5704L13.5115 15.3815C14.5487 12.8137 17.0606 11.0007 20 11.0007C21.7844 11.0007 23.4078 11.6738 24.6439 12.7734L27.9438 9.47348C25.8601 7.53157 23.073 6.33398 20 6.33398C15.5188 6.33398 11.6326 8.8639 9.67847 12.5704Z" fill="#FF3D00"/>
<path d="M20 29.6671C23.0135 29.6671 25.7517 28.5138 27.8219 26.6384L24.2111 23.5829C23.0004 24.5036 21.521 25.0016 20 25.0004C16.9655 25.0004 14.3889 23.0655 13.4183 20.3652L9.61377 23.2965C11.5446 27.0747 15.4658 29.6671 20 29.6671Z" fill="#4CAF50"/>
<path d="M31.4397 15.7144H30.5V15.666H20V20.3327H26.5934C26.1333 21.6256 25.3045 22.7554 24.2093 23.5824L24.2111 23.5813L27.8219 26.6368C27.5664 26.8689 31.6667 23.8327 31.6667 17.9993C31.6667 17.2171 31.5862 16.4535 31.4397 15.7144Z" fill="#1976D2"/>
<defs>
<filter id="filter0_d_1006_1250" x="0" y="0" width="40" height="40" filterUnits="userSpaceOnUse" color-interpolation-filters="sRGB">
<feFlood flood-opacity="0" result="BackgroundImageFix"/>
<feColorMatrix in="SourceAlpha" type="matrix" values="0 0 0 0 0 0 0 0 0 0 0 0 0 0 0 0 0 0 127 0" result="hardAlpha"/>
<feOffset dy="2"/>
<feGaussianBlur stdDeviation="2"/>
<feComposite in2="hardAlpha" operator="out"/>
<feColorMatrix type="matrix" values="0 0 0 0 0 0 0 0 0 0 0 0 0 0 0 0 0 0 0.05 0"/>
<feBlend mode="normal" in2="BackgroundImageFix" result="effect1_dropShadow_1006_1250"/>
<feBlend mode="normal" in="SourceGraphic" in2="effect1_dropShadow_1006_1250" result="shape"/>
</filter>
</defs>
</svg>
