<svg width="48" height="48" viewBox="0 0 48 48" fill="none" xmlns="http://www.w3.org/2000/svg">
<path fill-rule="evenodd" clip-rule="evenodd" d="M24 48C37.2548 48 48 37.2548 48 24C48 10.7452 37.2548 0 24 0C10.7452 0 0 10.7452 0 24C0 37.2548 10.7452 48 24 48Z" fill="#24AFB5"/>
<path opacity="0.4" fill-rule="evenodd" clip-rule="evenodd" d="M16.5517 23.1719H31.4482C34.1906 23.1719 36.4138 25.395 36.4138 28.1374V33.1029C36.4138 35.8453 34.1906 38.0684 31.4482 38.0684H16.5517C13.8093 38.0684 11.5862 35.8453 11.5862 33.1029V28.1374C11.5862 25.395 13.8093 23.1719 16.5517 23.1719Z" fill="white"/>
<path opacity="0.6" fill-rule="evenodd" clip-rule="evenodd" d="M16.5517 16.5508H31.4482C34.1906 16.5508 36.4138 18.7739 36.4138 21.5163V26.4818C36.4138 29.2242 34.1906 31.4473 31.4482 31.4473H16.5517C13.8093 31.4473 11.5862 29.2242 11.5862 26.4818V21.5163C11.5862 18.7739 13.8093 16.5508 16.5517 16.5508Z" fill="white"/>
<path opacity="0.8" fill-rule="evenodd" clip-rule="evenodd" d="M16.5517 9.93164H31.4482C34.1906 9.93164 36.4138 12.1548 36.4138 14.8972V19.8627C36.4138 22.6051 34.1906 24.8282 31.4482 24.8282H16.5517C13.8093 24.8282 11.5862 22.6051 11.5862 19.8627V14.8972C11.5862 12.1548 13.8093 9.93164 16.5517 9.93164Z" fill="white"/>
</svg>
