<svg width="265" height="270" viewBox="0 0 265 270" fill="none" xmlns="http://www.w3.org/2000/svg">
<path d="M132.213 0.5C204.956 0.5 263.927 59.4695 263.927 132.212C263.927 204.954 204.956 263.924 132.213 263.924C59.4699 263.924 0.500107 204.954 0.5 132.212C0.5 59.4697 59.4698 0.500173 132.213 0.5Z" stroke="#960018" stroke-opacity="0.1"/>
<path d="M132.214 17.2344C200.335 17.2346 255.559 72.4574 255.559 140.578C255.559 208.699 200.335 263.922 132.214 263.922C64.0921 263.922 8.86816 208.699 8.86816 140.578C8.86825 72.4572 64.0922 17.2344 132.214 17.2344Z" stroke="#960018" stroke-opacity="0.1"/>
<path d="M131.934 35.6426C196.513 35.6426 248.864 87.9934 248.864 152.571C248.864 217.149 196.513 269.5 131.934 269.5C67.3556 269.5 15.0045 217.149 15.0044 152.571C15.0044 87.9935 67.3556 35.6427 131.934 35.6426Z" stroke="#960018" stroke-opacity="0.1"/>
</svg>
