<svg width="262" height="157" viewBox="0 0 262 157" fill="none" xmlns="http://www.w3.org/2000/svg">
<rect width="262" height="157" rx="10" fill="white"/>
<rect width="262" height="28" fill="#5D6C7C"/>
<path d="M84.646 9.27V19H83.05V9.27H84.646ZM89.5114 9.27C90.5474 9.27 91.4527 9.47067 92.2274 9.872C93.0114 10.264 93.6134 10.8333 94.0334 11.58C94.4627 12.3173 94.6774 13.1807 94.6774 14.17C94.6774 15.1593 94.4627 16.018 94.0334 16.746C93.6134 17.474 93.0114 18.034 92.2274 18.426C91.4527 18.8087 90.5474 19 89.5114 19H86.3334V9.27H89.5114ZM89.5114 17.698C90.6501 17.698 91.5227 17.39 92.1294 16.774C92.7361 16.158 93.0394 15.29 93.0394 14.17C93.0394 13.0407 92.7361 12.1587 92.1294 11.524C91.5227 10.8893 90.6501 10.572 89.5114 10.572H87.9294V17.698H89.5114ZM97.4472 10.558V13.414H100.807V14.716H97.4472V17.698H101.227V19H95.8512V9.256H101.227V10.558H97.4472ZM110.779 19H109.183L104.381 11.734V19H102.785V9.256H104.381L109.183 16.508V9.256H110.779V19ZM118.753 9.27V10.572H116.163V19H114.567V10.572H111.963V9.27H118.753ZM121.557 9.27V19H119.961V9.27H121.557ZM129.531 9.27V10.572H126.941V19H125.345V10.572H122.741V9.27H129.531ZM137.949 9.27L134.729 15.472V19H133.133V15.472L129.899 9.27H131.677L133.931 14.044L136.185 9.27H137.949ZM141.504 14.114C141.504 13.162 141.724 12.308 142.162 11.552C142.61 10.796 143.212 10.208 143.968 9.788C144.734 9.35867 145.569 9.144 146.474 9.144C147.51 9.144 148.43 9.40067 149.232 9.914C150.044 10.418 150.632 11.1367 150.996 12.07H149.078C148.826 11.5567 148.476 11.174 148.028 10.922C147.58 10.67 147.062 10.544 146.474 10.544C145.83 10.544 145.256 10.6887 144.752 10.978C144.248 11.2673 143.852 11.6827 143.562 12.224C143.282 12.7653 143.142 13.3953 143.142 14.114C143.142 14.8327 143.282 15.4627 143.562 16.004C143.852 16.5453 144.248 16.9653 144.752 17.264C145.256 17.5533 145.83 17.698 146.474 17.698C147.062 17.698 147.58 17.572 148.028 17.32C148.476 17.068 148.826 16.6853 149.078 16.172H150.996C150.632 17.1053 150.044 17.824 149.232 18.328C148.43 18.832 147.51 19.084 146.474 19.084C145.56 19.084 144.724 18.874 143.968 18.454C143.212 18.0247 142.61 17.432 142.162 16.676C141.724 15.92 141.504 15.066 141.504 14.114ZM158.322 17.012H154.248L153.548 19H151.882L155.368 9.256H157.216L160.702 19H159.022L158.322 17.012ZM157.874 15.71L156.292 11.188L154.696 15.71H157.874ZM166.864 19L164.624 15.108H163.406V19H161.81V9.27H165.17C165.917 9.27 166.547 9.40067 167.06 9.662C167.583 9.92333 167.97 10.2733 168.222 10.712C168.483 11.1507 168.614 11.6407 168.614 12.182C168.614 12.8167 168.427 13.3953 168.054 13.918C167.69 14.4313 167.125 14.7813 166.36 14.968L168.768 19H166.864ZM163.406 13.834H165.17C165.767 13.834 166.215 13.6847 166.514 13.386C166.822 13.0873 166.976 12.686 166.976 12.182C166.976 11.678 166.827 11.286 166.528 11.006C166.229 10.7167 165.777 10.572 165.17 10.572H163.406V13.834ZM173.426 9.27C174.462 9.27 175.367 9.47067 176.142 9.872C176.926 10.264 177.528 10.8333 177.948 11.58C178.377 12.3173 178.592 13.1807 178.592 14.17C178.592 15.1593 178.377 16.018 177.948 16.746C177.528 17.474 176.926 18.034 176.142 18.426C175.367 18.8087 174.462 19 173.426 19H170.248V9.27H173.426ZM173.426 17.698C174.564 17.698 175.437 17.39 176.044 16.774C176.65 16.158 176.954 15.29 176.954 14.17C176.954 13.0407 176.65 12.1587 176.044 11.524C175.437 10.8893 174.564 10.572 173.426 10.572H171.844V17.698H173.426Z" fill="white"/>
<path d="M42.4053 91.1109C37.9055 86.8516 35.6556 81.7313 35.6556 75.75C35.6556 69.7688 37.9055 64.6484 42.4053 60.3891C46.9051 56.1297 52.3145 54 58.6334 54C64.9523 54 70.3616 56.1297 74.8615 60.3891C79.3613 64.6484 81.6112 69.7688 81.6112 75.75C81.6112 81.7313 79.3613 86.8516 74.8615 91.1109C70.3616 95.3703 64.9523 97.5 58.6334 97.5C52.3145 97.5 46.9051 95.3703 42.4053 91.1109ZM12.6777 141V125.775C12.6777 122.694 13.5164 119.863 15.1938 117.282C16.8712 114.701 19.0962 112.729 21.8689 111.366C27.8048 108.556 33.8365 106.45 39.9639 105.047C46.0913 103.644 52.3145 102.941 58.6334 102.938C64.9523 102.934 71.1754 103.637 77.3029 105.047C83.4303 106.457 89.462 108.563 95.3979 111.366C98.1744 112.725 100.401 114.697 102.079 117.282C103.756 119.866 104.593 122.697 104.589 125.775V141H12.6777Z" fill="#9CA2A7"/>
<rect x="132" y="54" width="29" height="7" fill="#9CA1A2"/>
<rect x="132" y="64" width="55" height="3" fill="#C8C8CA"/>
<rect x="132" y="70" width="55" height="6" fill="#9CA1A2"/>
<rect x="132" y="85" width="55" height="7" fill="#9CA1A2"/>
<rect x="132" y="134" width="75" height="7" fill="#9CA1A2"/>
<rect x="132" y="126" width="48" height="6" fill="#9CA1A2"/>
<rect x="132" y="81" width="55" height="3" fill="#C8C8CA"/>
</svg>
