<svg width="46" height="47" viewBox="0 0 46 47" fill="none" xmlns="http://www.w3.org/2000/svg">
<path d="M20.5983 10.5952C6.77232 20.4511 5.3757 31.164 8.86699 41.377C-4.93138 28.0073 1.39535 13.7615 6.28351 8.3098C17.9031 -3.51727 30.0719 0.667915 34.7039 4.23889C41.9661 18.9799 32.7022 29.0452 27.1624 32.2353L26.7557 32.1388L26.421 32.5167C26.1944 32.8045 25.9097 33.069 25.5593 33.3046L25.5396 33.3207C25.5268 33.3315 25.5138 33.3422 25.5005 33.3529L25.5004 33.353C25.3887 34.2671 26.6038 34.4731 27.1624 34.3779C41.2399 26.2646 39.8247 11.9522 37.3574 5.81012C48.1949 14.4376 45.9231 27.7359 43.4326 33.3066C42.1291 36.5205 37.4133 43.5053 28.9779 45.7336C20.5426 47.9619 13.7785 44.8051 11.4509 42.9482C3.7976 27.9216 14.6397 16.1659 21.0174 12.1664C22.8051 13.9948 22.6468 20.213 22.3442 23.0936C20.1918 25.354 19.9235 26.6884 19.2717 27.8073C18.6555 29.6391 18.7254 30.2819 19.2717 32.0211C21.208 34.9484 24.3152 34.3044 25.5005 33.3529L25.5396 33.3207C25.5452 33.316 25.5508 33.3113 25.5563 33.3066C25.5573 33.3059 25.5583 33.3053 25.5593 33.3046L26.1589 32.8126L26.421 32.5167C28.5036 29.8717 25.6784 25.2615 23.8106 23.0936C24.9279 16.3516 23.0192 11.9522 21.9252 10.5952H20.5983Z" fill="#960018" stroke="#960018"/>
</svg>
